<?xml version="1.0" encoding="utf-8"?>
<!-- Generator: Adobe Illustrator 27.4.0, SVG Export Plug-In . SVG Version: 6.00 Build 0)  -->
<svg version="1.1" id="Layer_1" xmlns="http://www.w3.org/2000/svg" xmlns:xlink="http://www.w3.org/1999/xlink" x="0px" y="0px"
	 viewBox="0 0 291.7 118" style="enable-background:new 0 0 291.7 118;" xml:space="preserve">
<style type="text/css">
	.st0{fill:none;}
	.st1{fill:none;stroke:#000000;stroke-width:12;stroke-miterlimit:10;}
	.st2{fill:#8C1E41;}
	.st3{fill:#FFC72B;}
	.st4{fill:#FFFFFF;}
	.st5{font-family:'Montserrat-BoldItalic';}
	.st6{font-size:38.4439px;}
</style>
<rect x="0" class="st0" width="125" height="118"/>
<path class="st1" d="M63.7,50.2"/>
<g>
	<g>
		<path class="st2" d="M76.4,89.9l-24-67.2c-0.8-2.2,1.4-4.4,3.6-3.6l67.2,24c2.7,1,2.4,4.9-0.5,5.4L90,54.5
			c-1.1,0.2-2.1,1.1-2.3,2.3l-5.9,32.7C81.3,92.3,77.3,92.6,76.4,89.9z"/>
	</g>
	<g>
		<path class="st3" d="M48.6,28.1l24,67.2c0.8,2.2-1.4,4.4-3.6,3.6l-67.2-24c-2.7-1-2.4-4.9,0.5-5.4L35,63.5
			c1.1-0.2,2.1-1.1,2.3-2.3l5.9-32.7C43.7,25.7,47.7,25.4,48.6,28.1z"/>
	</g>
</g>
<text transform="matrix(1 0 0 1 101.3824 94.6008)" class="st4 st5 st6">SunSwap</text>
</svg>
