<?xml version="1.0" encoding="utf-8"?>
<!-- Generator: Adobe Illustrator 27.4.0, SVG Export Plug-In . SVG Version: 6.00 Build 0)  -->
<svg version="1.1" id="Layer_1" xmlns="http://www.w3.org/2000/svg" xmlns:xlink="http://www.w3.org/1999/xlink" x="0px" y="0px"
	 viewBox="0 0 291.7 118" style="enable-background:new 0 0 291.7 118;" xml:space="preserve">
<style type="text/css">
	.st0{fill:none;}
	.st1{fill:none;stroke:#000000;stroke-width:12;stroke-miterlimit:10;}
	.st2{fill:#8C1E41;}
	.st3{fill:#FFC72B;}
	.st4{enable-background:new    ;}
	.st5{fill:#FFFFFF;}
</style>
<rect y="0" class="st0" width="125" height="118"/>
<path class="st1" d="M63.7,50.2"/>
<g>
	<g>
		<path class="st2" d="M76.4,89.9l-24-67.2c-0.8-2.2,1.4-4.4,3.6-3.6l67.2,24c2.7,1,2.4,4.9-0.5,5.4l-32.7,6
			c-1.1,0.2-2.1,1.1-2.3,2.3l-5.9,32.7C81.3,92.3,77.3,92.6,76.4,89.9z"/>
	</g>
	<g>
		<path class="st3" d="M48.6,28.1l24,67.2c0.8,2.2-1.4,4.4-3.6,3.6l-67.2-24c-2.7-1-2.4-4.9,0.5-5.4l32.7-6c1.1-0.2,2.1-1.1,2.3-2.3
			l5.9-32.7C43.7,25.7,47.7,25.4,48.6,28.1z"/>
	</g>
</g>
<g class="st4">
	<path class="st5" d="M111.9,95.1c-1.5,0-2.9-0.1-4.2-0.4c-1.4-0.3-2.6-0.6-3.7-1.1c-1.1-0.5-2.1-1-2.8-1.5l2.5-4.8
		c0.8,0.6,1.7,1.1,2.7,1.5c1,0.4,2,0.7,3,1c1.1,0.2,2.1,0.3,3.2,0.3c1.2,0,2.1-0.1,3-0.4c0.8-0.3,1.5-0.6,1.9-1.1
		c0.4-0.5,0.7-1,0.7-1.7c0-0.6-0.2-1.1-0.7-1.5c-0.5-0.4-1.1-0.7-1.9-1c-0.8-0.3-1.6-0.5-2.6-0.8c-0.9-0.3-1.9-0.6-2.9-0.9
		c-1-0.3-1.8-0.8-2.6-1.3c-0.8-0.5-1.4-1.2-1.9-2c-0.5-0.8-0.7-1.8-0.7-3.1c0-1.8,0.5-3.4,1.5-4.8c1-1.4,2.4-2.4,4.3-3.2
		c1.8-0.8,4-1.1,6.5-1.1c1.8,0,3.5,0.2,5.2,0.6c1.6,0.4,3,1,4.2,1.7l-2.3,4.8c-1-0.7-2.2-1.2-3.4-1.6c-1.3-0.3-2.6-0.5-3.9-0.5
		c-1.2,0-2.2,0.1-3.1,0.4c-0.9,0.3-1.5,0.7-2,1.2c-0.4,0.5-0.7,1.1-0.7,1.7c0,0.6,0.2,1.2,0.7,1.6c0.5,0.4,1.1,0.7,1.9,1
		s1.7,0.5,2.6,0.8c0.9,0.3,1.9,0.6,2.8,0.9s1.8,0.8,2.6,1.3s1.4,1.2,1.9,1.9c0.5,0.8,0.7,1.8,0.7,2.9c0,1.8-0.5,3.5-1.5,4.8
		c-1,1.4-2.5,2.4-4.3,3.2C116.6,94.7,114.4,95.1,111.9,95.1z"/>
	<path class="st5" d="M135.5,94.9c-1.7,0-3.2-0.4-4.4-1.1s-2.1-1.8-2.6-3.2c-0.5-1.4-0.6-3.2-0.2-5.2l2.3-11.5h6L134.4,85
		c-0.3,1.5-0.2,2.7,0.4,3.5c0.6,0.8,1.5,1.2,2.9,1.2c1.5,0,2.7-0.4,3.7-1.3c1-0.9,1.7-2.2,2-4l2.1-10.5h6l-4.1,20.7h-5.7l1.2-5.8
		l0.8,1.8c-1,1.5-2.2,2.6-3.7,3.3C138.7,94.6,137.1,94.9,135.5,94.9z"/>
	<path class="st5" d="M169.2,73.6c1.8,0,3.3,0.4,4.5,1.1c1.2,0.7,2.1,1.8,2.6,3.2c0.5,1.4,0.6,3.2,0.2,5.2l-2.3,11.5h-6l2.2-11.1
		c0.3-1.5,0.2-2.7-0.4-3.5c-0.6-0.8-1.6-1.2-3-1.2c-1.5,0-2.8,0.4-3.8,1.3s-1.7,2.2-2.1,4L159,94.6h-6l4.1-20.7h5.7l-1.2,5.8
		l-0.8-1.8c1-1.5,2.2-2.6,3.7-3.3C166,74,167.6,73.6,169.2,73.6z"/>
	<path class="st5" d="M189.4,95.1c-1.5,0-2.9-0.1-4.2-0.4c-1.4-0.3-2.6-0.6-3.7-1.1c-1.1-0.5-2.1-1-2.8-1.5l2.5-4.8
		c0.8,0.6,1.7,1.1,2.7,1.5c1,0.4,2,0.7,3,1c1,0.2,2.1,0.3,3.2,0.3c1.2,0,2.1-0.1,3-0.4c0.8-0.3,1.5-0.6,1.9-1.1
		c0.4-0.5,0.7-1,0.7-1.7c0-0.6-0.2-1.1-0.7-1.5c-0.5-0.4-1.1-0.7-1.9-1c-0.8-0.3-1.6-0.5-2.6-0.8c-0.9-0.3-1.9-0.6-2.9-0.9
		c-1-0.3-1.8-0.8-2.6-1.3c-0.8-0.5-1.4-1.2-1.9-2c-0.5-0.8-0.7-1.8-0.7-3.1c0-1.8,0.5-3.4,1.5-4.8c1-1.4,2.4-2.4,4.3-3.2
		c1.8-0.8,4-1.1,6.5-1.1c1.8,0,3.5,0.2,5.2,0.6c1.6,0.4,3,1,4.2,1.7l-2.3,4.8c-1-0.7-2.2-1.2-3.4-1.6c-1.3-0.3-2.6-0.5-3.9-0.5
		c-1.2,0-2.2,0.1-3.1,0.4c-0.9,0.3-1.5,0.7-2,1.2c-0.4,0.5-0.7,1.1-0.7,1.7c0,0.6,0.2,1.2,0.7,1.6s1.1,0.7,1.9,1
		c0.8,0.3,1.7,0.5,2.6,0.8c0.9,0.3,1.9,0.6,2.8,0.9s1.8,0.8,2.6,1.3c0.8,0.5,1.4,1.2,1.9,1.9c0.5,0.8,0.7,1.8,0.7,2.9
		c0,1.8-0.5,3.5-1.5,4.8c-1,1.4-2.5,2.4-4.3,3.2C194.1,94.7,191.9,95.1,189.4,95.1z"/>
	<path class="st5" d="M208.7,94.6L205,73.9h5.5l2.9,17.8h-2.8l9.9-17.8h5.2l3,17.8h-2.8l9.8-17.8h5.7l-11.4,20.7H224l-2.8-15.3h1.8
		l-8.5,15.3H208.7z"/>
	<path class="st5" d="M248.7,94.9c-1.6,0-3.1-0.4-4.4-1.1c-1.4-0.7-2.4-1.8-3.3-3.2s-1.2-3-1.2-5c0-1.7,0.3-3.3,0.9-4.8
		c0.6-1.5,1.4-2.7,2.4-3.8c1.1-1.1,2.3-1.9,3.7-2.5c1.4-0.6,2.9-0.9,4.5-0.9c1.7,0,3.2,0.3,4.4,1c1.2,0.6,2.1,1.6,2.7,3
		c0.6,1.3,0.8,3.1,0.6,5.2c-0.1,2.4-0.6,4.6-1.5,6.4c-0.9,1.8-2,3.2-3.5,4.2C252.5,94.4,250.7,94.9,248.7,94.9z M250.5,89.9
		c1.2,0,2.2-0.3,3.1-0.9c0.9-0.6,1.6-1.4,2.2-2.4c0.5-1,0.8-2.2,0.8-3.6c0-1.4-0.4-2.5-1.2-3.3c-0.8-0.8-2-1.2-3.5-1.2
		c-1.2,0-2.2,0.3-3.1,0.9c-0.9,0.6-1.6,1.4-2.2,2.4s-0.8,2.2-0.8,3.6c0,1.4,0.4,2.5,1.2,3.3C247.9,89.5,249.1,89.9,250.5,89.9z
		 M254.7,94.6l0.8-4.1l1.3-6.2l0.8-6.2l0.8-4.3h6l-4.1,20.7H254.7z"/>
	<path class="st5" d="M264.4,102.1l5.6-28.1h5.7l-0.8,4.1l-1.3,6.2l-0.8,6.2l-2.3,11.7H264.4z M279.1,94.9c-1.7,0-3.1-0.3-4.4-1
		s-2.2-1.6-2.8-3s-0.8-3.1-0.7-5.2c0.2-2.5,0.7-4.6,1.5-6.4c0.9-1.8,2-3.2,3.5-4.2c1.5-1,3.2-1.5,5.3-1.5c1.6,0,3.1,0.4,4.5,1.1
		c1.4,0.7,2.4,1.8,3.3,3.2c0.8,1.4,1.2,3,1.2,5c0,1.7-0.3,3.3-0.9,4.8c-0.6,1.5-1.4,2.7-2.4,3.8c-1,1.1-2.2,1.9-3.6,2.5
		C282.2,94.6,280.7,94.9,279.1,94.9z M278.4,89.9c1.2,0,2.3-0.3,3.2-0.9c0.9-0.6,1.6-1.4,2.1-2.4c0.5-1,0.8-2.2,0.8-3.6
		c0-1.4-0.4-2.5-1.2-3.3s-2-1.2-3.5-1.2c-1.2,0-2.2,0.3-3.1,0.9c-0.9,0.6-1.6,1.4-2.2,2.4s-0.8,2.2-0.8,3.6c0,1.4,0.4,2.5,1.2,3.3
		C275.8,89.5,276.9,89.9,278.4,89.9z"/>
</g>
</svg>
