<?xml version="1.0" encoding="utf-8"?>
<!-- Generator: Adobe Illustrator 27.4.0, SVG Export Plug-In . SVG Version: 6.00 Build 0)  -->
<svg version="1.1" id="Layer_1" xmlns="http://www.w3.org/2000/svg" xmlns:xlink="http://www.w3.org/1999/xlink" x="0px" y="0px"
	 viewBox="0 0 364.4 364.4" style="enable-background:new 0 0 364.4 364.4;" xml:space="preserve">
<style type="text/css">
	.st0{fill:#FFFFFF;stroke:#000000;stroke-miterlimit:10;}
</style>
<circle class="st0" cx="182.2" cy="182.2" r="162"/>
<path d="M182.2,0C81.6,0,0,81.6,0,182.2l0,0c0,100.6,81.6,182.2,182.2,182.2s182.2-81.6,182.2-182.2S282.8,0,182.2,0L182.2,0z
	 M89.1,116h186.1l0,0l-93.1,58L89.1,116L89.1,116z M291.3,238.6c0,10.8-8.7,19.5-19.5,19.5H92.6c-10.8,0-19.5-8.7-19.5-19.5V135.5
	c0-1.1,0.1-2.2,0.3-3.3l103,64.2c0.1,0.1,0.3,0.1,0.4,0.2c0.1,0.1,0.3,0.1,0.4,0.2c0.7,0.4,1.5,0.7,2.2,0.9c0.1,0,0.2,0,0.2,0.1
	c0.8,0.2,1.7,0.3,2.5,0.3l0,0c0.9,0,1.7-0.1,2.5-0.3c0.1,0,0.2,0,0.2-0.1c0.8-0.2,1.5-0.5,2.2-0.9c0.1-0.1,0.3-0.1,0.4-0.2
	c0.1-0.1,0.3-0.1,0.4-0.2l103-64.2c0.2,1.1,0.3,2.2,0.3,3.3v103.1H291.3z"/>
</svg>
