<?xml version="1.0" encoding="utf-8"?>
<!-- Generator: Adobe Illustrator 27.4.0, SVG Export Plug-In . SVG Version: 6.00 Build 0)  -->
<svg version="1.1" id="Layer_1" xmlns="http://www.w3.org/2000/svg" xmlns:xlink="http://www.w3.org/1999/xlink" x="0px" y="0px"
	 viewBox="0 0 364.4 364.4" style="enable-background:new 0 0 364.4 364.4;" xml:space="preserve">
<style type="text/css">
	.st0{fill:#FFFFFF;}
</style>
<g>
	<circle cx="182.2" cy="182.2" r="182.2"/>
	<path class="st0" d="M284.9,235.5c8.6,8.6,8.6,22.6-0.1,31.2c-1.6,1.6-3.4,2.9-5.4,3.9c-17.5,9.4-38,11.8-57.2,6.7
		C171.2,264.5,97.8,191.1,84.9,140c-5.1-19.2-2.7-39.7,6.7-57.2c5.6-10.8,18.9-15,29.7-9.4c2,1,3.8,2.4,5.4,3.9l21.8,21.8
		c6.4,6.4,8.3,16,4.7,24.3c-1.9,4.5-4.7,8.7-8.1,12.2c-24.9,24.9,56.6,106.4,81.5,81.5c3.6-3.4,7.7-6.2,12.3-8.2
		c8.3-3.6,18-1.8,24.3,4.7L284.9,235.5z"/>
</g>
</svg>
