<?xml version="1.0" encoding="utf-8"?>
<!-- Generator: Adobe Illustrator 27.4.0, SVG Export Plug-In . SVG Version: 6.00 Build 0)  -->
<svg version="1.1" id="Layer_1" xmlns="http://www.w3.org/2000/svg" xmlns:xlink="http://www.w3.org/1999/xlink" x="0px" y="0px"
	 viewBox="0 0 71 147.3" style="enable-background:new 0 0 71 147.3;" xml:space="preserve">
<style type="text/css">
	.st0{fill:#8C1E41;}
	.st1{fill:#FFC72B;}
</style>
<g>
	<path class="st0" d="M70.7,4.3L38.2,73c-1.1,2.3-4.3,2.3-5.4,0L0.3,4.3C-1,1.5,2.2-1.2,4.7,0.6l29.1,20.2c1,0.7,2.4,0.7,3.4,0
		L66.3,0.6C68.8-1.2,72,1.5,70.7,4.3z"/>
</g>
<g>
	<path class="st1" d="M70.7,76.9l-32.5,68.6c-1.1,2.3-4.3,2.3-5.4,0L0.3,76.9c-1.3-2.8,1.9-5.5,4.4-3.8l29.1,20.2
		c1,0.7,2.4,0.7,3.4,0l29.1-20.2C68.8,71.4,72,74.1,70.7,76.9z"/>
</g>
</svg>
