<?xml version="1.0" encoding="utf-8"?>
<!-- Generator: Adobe Illustrator 27.4.0, SVG Export Plug-In . SVG Version: 6.00 Build 0)  -->
<svg version="1.1" id="Layer_1" xmlns="http://www.w3.org/2000/svg" xmlns:xlink="http://www.w3.org/1999/xlink" x="0px" y="0px"
	 viewBox="0 0 30 30" style="enable-background:new 0 0 30 30;" xml:space="preserve">
<style type="text/css">
	.st0{fill:#FFFFFF;}
	.st1{fill:#222222;}
</style>
<g>
	<path class="st0" d="M29.2,7.8c-0.3-1.3-1.3-2.3-2.6-2.7c-2.3-0.6-11.7-0.6-11.7-0.6s-9.3,0-11.6,0.6C2,5.5,1,6.5,0.6,7.8
		C0,10.1,0,15,0,15s0,4.9,0.6,7.2C1,23.5,2,24.6,3.3,24.9c2.3,0.6,11.6,0.6,11.6,0.6s9.3,0,11.7-0.6c1.3-0.3,2.3-1.4,2.6-2.7
		c0.6-2.3,0.6-7.2,0.6-7.2S29.9,10.1,29.2,7.8"/>
	<path class="st1" d="M11.9,19.5l7.8-4.4l-7.8-4.4L11.9,19.5z"/>
</g>
</svg>
